<?xml version="1.0" standalone="no"?><!-- Generator: Gravit.io --><svg xmlns="http://www.w3.org/2000/svg" xmlns:xlink="http://www.w3.org/1999/xlink" style="isolation:isolate" viewBox="159 0 255.111 315" width="255.111" height="315"><path d=" M 401.257 31.999 L 298.726 1.761 C 290.766 -0.587 282.348 -0.587 274.386 1.761 L 171.857 31.999 C 164.287 34.231 159 41.301 159 49.193 L 159 134.104 C 159 173.4 170.697 211.239 192.828 243.53 C 214.434 275.056 244.502 299.31 279.779 313.666 C 281.964 314.555 284.26 315 286.556 315 C 288.852 315 291.148 314.555 293.333 313.666 C 328.61 299.31 358.678 275.057 380.284 243.53 C 402.414 211.238 414.111 173.4 414.111 134.104 L 414.111 49.194 C 414.113 41.302 408.826 34.231 401.257 31.999 Z " fill="rgb(0,174,239)"/></svg>